<svg xmlns="http://www.w3.org/2000/svg" fill="none" viewBox="0 0 207 151"><g clip-path="url(#a)"><path d="M103.06.97a95.56 95.56 0 0 1 95.559 95.56v21.09H7.5V96.53A95.56 95.56 0 0 1 103.06.97Z" fill="#CEE7F2"/><path d="M7.5 117.619h191.119a33.35 33.35 0 0 1-33.35 33.35H40.85a33.35 33.35 0 0 1-33.35-33.35Z" fill="#EAF5FA"/><g opacity=".49"><path d="M172.242 51.12h-50.938a3.765 3.765 0 0 0-3.765 3.764v20.24a3.765 3.765 0 0 0 3.765 3.765h50.938a3.765 3.765 0 0 0 3.765-3.765v-20.24a3.765 3.765 0 0 0-3.765-3.765Z" fill="#FDFDFD"/><path d="M172.246 51.478a3.412 3.412 0 0 1 3.407 3.412v20.235a3.406 3.406 0 0 1-3.407 3.406h-50.943a3.408 3.408 0 0 1-3.407-3.406V54.89a3.41 3.41 0 0 1 3.407-3.412h50.943Zm0-.716h-50.943a4.13 4.13 0 0 0-4.123 4.128v20.235a4.127 4.127 0 0 0 4.123 4.123h50.943a4.128 4.128 0 0 0 4.123-4.123V54.89a4.135 4.135 0 0 0-4.123-4.128Z" fill="#87B5FF"/><path d="M167.367 62.353h-41.19v1.697h41.19v-1.697Zm0 4.487h-41.19v1.696h41.19V66.84Zm0 4.486h-41.19v1.696h41.19v-1.696Z" fill="#A7BFD9" opacity=".52"/><path d="M175.651 57.16v-2.27a3.41 3.41 0 0 0-3.407-3.412h-50.943a3.412 3.412 0 0 0-3.406 3.412v2.27h57.756Z" fill="#A5D9F5"/><path d="M124.298 54.321a1.487 1.487 0 0 1-.914 1.369 1.482 1.482 0 1 1 .914-1.369Zm5.836 0a1.487 1.487 0 0 1-.914 1.369 1.482 1.482 0 1 1 .914-1.369Zm5.828 0a1.487 1.487 0 0 1-.914 1.369 1.481 1.481 0 1 1 .914-1.369Z" fill="#FEFEFE"/></g><g opacity=".49"><path d="M90.813 41.717H27.337a2.255 2.255 0 0 0-2.255 2.255v41.181a2.255 2.255 0 0 0 2.255 2.256h63.476a2.255 2.255 0 0 0 2.255-2.256V43.972a2.255 2.255 0 0 0-2.255-2.255Z" fill="#fff"/><path d="M90.818 41.985a1.992 1.992 0 0 1 1.992 1.987v41.186a1.992 1.992 0 0 1-1.992 1.988H27.342a1.988 1.988 0 0 1-1.992-1.988V43.977a1.988 1.988 0 0 1 1.992-1.988h63.476m0-.53H27.342a2.522 2.522 0 0 0-2.518 2.518v41.186a2.523 2.523 0 0 0 2.518 2.518h63.476a2.523 2.523 0 0 0 2.518-2.518V43.977a2.522 2.522 0 0 0-2.518-2.518Z" fill="#A7BFD9"/><path d="M92.812 46.083v-2.107a1.992 1.992 0 0 0-1.992-1.988H27.344a1.988 1.988 0 0 0-1.992 1.988v2.112l67.46-.005Z" fill="#A5D9F5"/><path d="M28.743 44.034a.817.817 0 1 1-1.633 0 .817.817 0 0 1 1.633 0Zm2.398.817a.817.817 0 1 0 0-1.634.817.817 0 0 0 0 1.634Zm3.22 0a.817.817 0 1 0-.001-1.634.817.817 0 0 0 0 1.634Z" fill="#FEFEFE"/><path d="M85.097 52.406H33.543v1.28h51.554v-1.28Zm0 5.322H33.543v1.28h51.554v-1.28Zm0 5.317H33.543v1.28h51.554v-1.28Zm0 5.318H33.543v1.28h51.554v-1.28Zm0 5.323H33.543v1.28h51.554v-1.28Zm0 5.318H33.543v1.28h51.554v-1.28Z" fill="#A7BFD9"/></g><path d="M53.678 112.607H30.82v12.423h22.858v-12.423Z" fill="#2C5B94"/><path d="M78.602 58.945H5.9a5.299 5.299 0 0 0-5.298 5.3v50.42c0 2.928 2.372 5.3 5.298 5.3h72.702a5.299 5.299 0 0 0 5.299-5.3v-50.42a5.299 5.299 0 0 0-5.299-5.3Z" fill="#5181BA"/><path d="M77.799 61.799H6.697a3.244 3.244 0 0 0-3.244 3.244v48.822a3.245 3.245 0 0 0 3.244 3.244H77.8a3.245 3.245 0 0 0 3.244-3.244V65.043a3.244 3.244 0 0 0-3.245-3.244Z" fill="#D4E5F8"/><path d="M62.813 125.031h-41.13a.707.707 0 0 0-.706.707v1.692c0 .39.316.707.707.707h41.129c.39 0 .707-.317.707-.707v-1.692a.707.707 0 0 0-.707-.707Z" fill="#5181BA"/><path d="M71.85 66.615H10.744A3.244 3.244 0 0 0 7.5 69.86v41.09a3.247 3.247 0 0 0 1.998 3.015 3.23 3.23 0 0 0 1.246.248H71.85a3.245 3.245 0 0 0 2.997-2.002 3.25 3.25 0 0 0 .247-1.242v-41.09a3.245 3.245 0 0 0-3.244-3.264Z" fill="#A7BFD9"/><path d="M72.802 65.66h-61.1a3.244 3.244 0 0 0-3.245 3.244v41.101a3.245 3.245 0 0 0 3.244 3.244h61.101a3.245 3.245 0 0 0 3.244-3.244v-41.1a3.244 3.244 0 0 0-3.244-3.245Z" fill="#FEFEFE"/><path d="M76.051 69.612v-.708a3.244 3.244 0 0 0-3.244-3.244H11.7a3.244 3.244 0 0 0-3.244 3.244v.708H76.05Z" fill="#A5D9F5"/><path d="M13.322 67.638a.798.798 0 1 1-1.595 0 .798.798 0 0 1 1.595 0Zm3.344 0a.798.798 0 1 1-1.595 0 .798.798 0 0 1 1.595 0Zm3.348 0a.798.798 0 1 1-1.596 0 .798.798 0 0 1 1.596 0Z" fill="#FEFEFE"/><path d="M61.897 75.663h-21l-4.53-2.485a2.246 2.246 0 0 0-1.088-.281h-12.4a1.48 1.48 0 0 0-1.492 1.48v22.935h40.67l1.596-19.738a1.784 1.784 0 0 0-1.758-1.911Z" fill="#E6B027"/><path d="M60.45 94.188H24.717a1.06 1.06 0 0 1-1.037-.955L22.426 79.6a.956.956 0 0 1 .932-1.09h38.463a.956.956 0 0 1 .917 1.095l-1.253 13.632a1.06 1.06 0 0 1-1.036.95Z" fill="#FCFFFD"/><path d="M61.762 96.195H23.5a1.142 1.142 0 0 1-1.099-1.022L21.058 80.58a1.017 1.017 0 0 1 .985-1.17h41.19a1.018 1.018 0 0 1 .985 1.17L62.88 95.173a1.142 1.142 0 0 1-1.118 1.022Z" fill="#FCFFFD"/><path d="M62.818 98.06H22.439a1.194 1.194 0 0 1-1.166-1.075L19.84 81.58a1.077 1.077 0 0 1 1.041-1.232h43.48a1.07 1.07 0 0 1 1.05 1.232l-1.44 15.405a1.194 1.194 0 0 1-1.15 1.075Z" fill="#FCFFFD"/><path d="M20.492 81.323h44.062a1.967 1.967 0 0 1 1.96 2.193l-2.61 22.709a1.384 1.384 0 0 1-1.366 1.22H22.484a1.37 1.37 0 0 1-1.366-1.22l-2.609-22.71a1.968 1.968 0 0 1 1.983-2.192Z" fill="#FDC22C"/><path d="M176.428 112.607H153.57v12.423h22.858v-12.423Z" fill="#2C5B94"/><path d="M201.352 58.945H128.65a5.298 5.298 0 0 0-5.298 5.3v50.42c0 2.928 2.372 5.3 5.298 5.3h72.702a5.3 5.3 0 0 0 5.3-5.3v-50.42a5.299 5.299 0 0 0-5.3-5.3Z" fill="#5181BA"/><path d="M200.549 61.799h-71.102a3.245 3.245 0 0 0-3.244 3.244v48.822a3.245 3.245 0 0 0 3.244 3.244h71.102a3.245 3.245 0 0 0 3.244-3.244V65.043a3.245 3.245 0 0 0-3.244-3.244Z" fill="#D4E5F8"/><path d="M185.563 125.031h-41.129a.707.707 0 0 0-.707.707v1.692c0 .39.316.707.707.707h41.129c.39 0 .707-.317.707-.707v-1.692a.708.708 0 0 0-.707-.707Z" fill="#5181BA"/><path d="M194.6 66.615h-61.106a3.238 3.238 0 0 0-2.294.95 3.246 3.246 0 0 0-.95 2.294v41.091a3.25 3.25 0 0 0 .95 2.294 3.242 3.242 0 0 0 2.294.95H194.6a3.243 3.243 0 0 0 3.244-3.244V69.86a3.246 3.246 0 0 0-3.244-3.245Z" fill="#A7BFD9"/><path d="M195.552 65.66h-61.101a3.245 3.245 0 0 0-3.244 3.244v41.101a3.245 3.245 0 0 0 3.244 3.244h61.101a3.244 3.244 0 0 0 3.244-3.244v-41.1a3.244 3.244 0 0 0-3.244-3.245Z" fill="#FEFEFE"/><path d="M198.801 69.612v-.708a3.246 3.246 0 0 0-3.244-3.244h-61.106a3.24 3.24 0 0 0-2.997 2.003 3.245 3.245 0 0 0-.247 1.241v.708h67.594Z" fill="#A5D9F5"/><path d="M136.117 67.637a.798.798 0 1 1-1.592-.125.798.798 0 0 1 1.592.125Zm3.303 0a.803.803 0 0 1-.492.738.801.801 0 0 1-.87-.173.8.8 0 1 1 1.303-.87c.04.097.06.2.059.306Zm3.324 0a.803.803 0 0 1-.492.738.798.798 0 1 1 .492-.737Z" fill="#FEFEFE"/><path d="M184.652 75.663h-21.023l-4.529-2.485a2.23 2.23 0 0 0-1.09-.281h-12.422a1.483 1.483 0 0 0-1.486 1.48v22.935h40.751l1.596-19.738a1.788 1.788 0 0 0-.48-1.35 1.782 1.782 0 0 0-1.32-.561Z" fill="#E6B027"/><path d="M183.206 94.188h-35.739a1.06 1.06 0 0 1-1.037-.955l-1.232-13.627a.95.95 0 0 1 .532-1 .956.956 0 0 1 .39-.094h38.472a.96.96 0 0 1 .704.34.945.945 0 0 1 .213.753l-1.251 13.633a1.06 1.06 0 0 1-1.052.95Z" fill="#FCFFFD"/><path d="M184.514 96.195h-38.262a1.14 1.14 0 0 1-1.11-1.022l-1.337-14.592a1.02 1.02 0 0 1 .226-.81 1.008 1.008 0 0 1 .759-.36h41.186a1.022 1.022 0 0 1 .99 1.17l-1.344 14.592a1.142 1.142 0 0 1-1.108 1.022Z" fill="#FCFFFD"/><path d="M185.576 98.06h-40.378a1.19 1.19 0 0 1-1.166-1.075l-1.434-15.405a1.076 1.076 0 0 1 .597-1.128c.138-.066.288-.101.44-.104h43.48a1.073 1.073 0 0 1 1.037 1.232l-1.434 15.405a1.191 1.191 0 0 1-1.142 1.075Z" fill="#FCFFFD"/><path d="M143.218 81.322h44.062a1.964 1.964 0 0 1 1.472.657 1.968 1.968 0 0 1 .487 1.536l-2.608 22.71a1.374 1.374 0 0 1-1.367 1.218h-40.03a1.378 1.378 0 0 1-1.366-1.218l-2.61-22.71a1.964 1.964 0 0 1 1.154-2.022 1.96 1.96 0 0 1 .806-.17Z" fill="#FDC22C"/><path d="m38.757 45.53-9.405 18.872L55.069 77.22l9.405-18.871-25.718-12.82Z" fill="#FEE79B"/><path d="M40.039 48.853 32.77 63.44l.808.402 7.27-14.586-.809-.403Zm1.742.865-7.27 14.587.81.402 7.27-14.586-.8-.392Zm-.69 5.753-4.833 9.7.808.412 4.834-9.7-.809-.403Zm4.175-4.019-7.27 14.587.808.403 7.27-14.587-.808-.403Zm1.746.872-7.27 14.586.808.403 7.27-14.587-.808-.402Zm-.822 6-4.71 9.451.809.403 4.71-9.45-.81-.403Zm4.302-4.268-7.27 14.587.809.402L51.3 54.46l-.809-.403Zm-.813 6.007-4.71 9.45.808.403 4.71-9.45-.808-.403Zm4.3-4.269-7.27 14.587.81.403 7.26-14.587-.81-.403Zm1.744.867-7.27 14.598.808.403 7.27-14.587-.808-.403Zm-.585 5.544-4.948 9.92.81.404 4.947-9.926-.808-.402Zm4.07-3.79-7.27 14.585.808.403 7.27-14.587-.81-.399Zm-.578 5.523-4.946 9.925.808.403 4.946-9.925-.808-.403Z" fill="#D4B498"/><path d="M72.424 14.779 53.867 24.79l13.645 25.288 18.556-10.012-13.644-25.288Z" fill="#FEE79B"/><path d="M71.566 18.232 57.223 25.97l.428.794L72 19.024l-.43-.793Zm.93 1.715-14.344 7.739.43.794 14.342-7.739-.429-.794Zm-3.889 4.304L59.07 29.4l.43.795 9.536-5.145-.429-.795Zm5.736-.88L60 31.11l.429.792 14.343-7.739-.43-.795Zm.922 1.72-14.343 7.74.43.797 14.342-7.74-.43-.793Zm-4.12 4.44-9.293 5.015.428.795 9.293-5.014-.429-.795Zm5.615-.557-14.342 7.66.424.793 14.342-7.66-.424-.795Zm-3.772 3.986-9.293 5.014.43.795 9.292-5.015-.429-.794Zm5.604-.55-14.342 7.65.424.794 14.342-7.66-.424-.794Zm1.298 1.251-14.343 7.74.429.794 14.343-7.738-.43-.793Zm-3.662 4.188-9.755 5.263.428.795 9.756-5.264-.429-.794Zm5.114-.285L67 45.213l.424.794 14.342-7.66-.424-.8Zm-3.266 3.714L68.32 46.54l.43.795 9.755-5.264-.43-.795Z" fill="#D4B498"/><path d="m96.73 6.512-3.402 28.533 20.937 2.496 3.402-28.532L96.73 6.512Z" fill="#FEE79B"/><path d="M114.984 11.332 98.8 9.402l-.106.897 16.183 1.93.107-.897Zm-.23 1.936-16.184-1.93-.107.897 16.183 1.93.107-.897Zm-5.654 1.287L98.34 13.27l-.107.898 10.76 1.283.107-.89Zm5.192 2.578-16.183-1.93-.11.897 16.18 1.93.103-.897Zm-.23 1.933-16.183-1.93-.107.897 16.183 1.93.107-.897Zm-5.928 1.257-10.486-1.25-.106.896 10.485 1.25.107-.896Zm5.467 2.613-16.183-1.93-.107.896 16.183 1.93.107-.896Zm-5.928 1.252-10.486-1.25-.106.896 10.485 1.25.107-.896Zm5.463 2.613-16.183-1.93-.107.897 16.183 1.93.107-.897Zm-.226 1.933-16.183-1.93-.107.897 16.183 1.94.107-.897Zm-5.398 1.315L96.5 28.725l-.107.897 11.012 1.313.107-.897Zm4.941 2.542L96.269 30.66l-.106.899 16.183 1.93.107-.898Zm-5.406 1.317L96.035 32.6l-.107.896 11.012 1.313.107-.9Z" fill="#D4B498"/><path d="M142.302 16.26 123.09 37.626l15.68 14.098 19.21-21.368-15.678-14.098Z" fill="#FEE79B"/><path d="m154.432 30.71-12.12-10.898-.603.672 12.119 10.897.604-.672Zm-1.3 1.448-12.12-10.896-.604.671 12.119 10.897.604-.672Zm-5.363-2.206-8.058-7.245-.604.671 8.058 7.246.604-.672Zm2.76 5.103L138.41 24.158l-.604.672 12.12 10.897.603-.672Zm-1.304 1.447-12.12-10.897-.603.672 12.119 10.897.604-.672Zm-5.564-2.391-7.852-7.06-.604.671 7.852 7.06.604-.67Zm2.962 5.284-12.12-10.897-.603.672 12.119 10.896.604-.671Zm-5.572-2.388-7.852-7.06-.604.672 7.852 7.06.604-.672Zm2.97 5.288L131.9 31.398l-.6.672 12.119 10.897.604-.672Zm-1.304 1.446-12.12-10.897-.603.671 12.119 10.897.604-.671Zm-5.17-2.037-8.246-7.415-.604.672 8.246 7.414.604-.671Zm2.564 4.93-12.12-10.898-.6.672 12.12 10.897.609-.672Zm-5.17-2.032-8.246-7.414-.603.67 8.246 7.416.604-.672Z" fill="#D4B498"/><path d="m170.795 46.253-27.248 9.122 6.694 19.995 27.25-9.123-6.69-19.994Z" fill="#FEE79B"/><path d="m174.237 64.816-5.175-15.455-.856.287 5.174 15.455.857-.287Zm-1.844.615-5.174-15.454-.857.286 5.174 15.455.857-.287Zm-3.582-4.56-3.44-10.27-.856.29 3.44 10.277.856-.287Zm-.114 5.8-5.174-15.45-.856.29 5.174 15.455.856-.287Zm-1.843.62-5.174-15.45-.857.287 5.174 15.454.857-.287Zm-3.674-4.82-3.352-10.01-.856.289 3.352 10.013.856-.286Zm-.018 6.06-5.174-15.451-.856.287 5.174 15.455.856-.287Zm-3.673-4.82-3.352-10.014-.857.286 3.353 10.013.856-.286Zm-.026 6.058-5.174-15.454-.856.285 5.174 15.455.856-.287Zm-1.844.62-5.174-15.453-.856.286 5.174 15.455.856-.287Zm-3.497-4.32-3.52-10.516-.857.288 3.52 10.517.857-.287Zm-.198 5.554-5.174-15.46-.856.288 5.174 15.455.856-.287Zm-3.497-4.32-3.52-10.515-.857.287 3.52 10.516.857-.287Z" fill="#D4B498"/><path d="M69.777 64.574c5.806-11.4 18.515-19.312 33.255-19.312 14.893 0 27.712 8.075 33.446 19.67" stroke="#7D87F2" stroke-miterlimit="10" stroke-width="3.058"/><path d="m65.156 62.023 9.236 4.783-7.74 3.636-1.496-8.419Zm75.92 0-9.236 4.783 7.74 3.636 1.496-8.419Z" fill="#7A87FF"/><path d="m144.764 131.097 1.216.069.703-12.417-1.216-.069-.703 12.417Z" fill="#666488"/><path d="m144.106 131.057 1.312.074.703-12.417-1.312-.075-.703 12.418Z" fill="#9692C6"/><path d="m139.23 120.549.196-11.845c.435-1.094 1.563-1.16 2.07-1.16h9.507a.978.978 0 0 1 .736.328.986.986 0 0 1 .206.355 1 1 0 0 1 .043.41l-1.31 12.423a.993.993 0 0 1-.606.798l-1.32.243.555-.477h-9.078a1 1 0 0 1-.738-.316.988.988 0 0 1-.261-.76Z" fill="#CE6A77"/><path d="M139.089 122.111h9.508a.985.985 0 0 0 .984-.888l1.281-12.117a.995.995 0 0 0-.58-1.018.997.997 0 0 0-.405-.086h-9.508a.992.992 0 0 0-.984.884l-1.28 12.122a.992.992 0 0 0 .984 1.103Zm-3.152 7.674v3.273l-8.003-1.348v-1.944l8.003.02Z" fill="#BD4D5C"/><path d="M133.046 149.882c9.74 0 17.635-1.626 17.635-3.632.01-2.005-7.89-3.631-17.63-3.631s-17.631 1.626-17.631 3.631c-.001 2.006 7.895 3.632 17.635 3.632Z" fill="#D2DCE0"/><path d="M138.508 121.933c-.172-.028-.244-.028-.36-.043a26.112 26.112 0 0 0-8.532.803c-2.341.602-6.312 2.614-8.156 3.58-1.634.85-1.6 3.305-1.802 6.578-.057 1.008.31 8.008.235 11.037.305-.057.807 0 1.304-.076.29-.048 1.17-4.348 1.868-6.14a9.974 9.974 0 0 0 .339-5.18c-.2-.926-.353-2.168.774-2.436 5.38-1.271 9.193-2.513 13.298-2.82.39-1.99.635-3.305 1.032-5.303Z" fill="#DE856C"/><path d="M116.832 145.231h4.606a.396.396 0 0 0 .39-.396v-.822c0-.35-.042-.736-.376-.798 0 0-1.11.1-1.577.205-.611.134-.912.215-1.691.392-1.157.258-1.64.425-1.735.774-.13.464.077.588.383.645Z" fill="#752056"/><path d="m141.251 123.372-.363-.043a26.17 26.17 0 0 0-8.529.802c-2.346.602-6.312 2.614-8.156 3.579-1.64.855-1.605 3.306-1.801 6.584-.062 1.003.305 8.008.229 11.032.306-.057.812 0 1.309-.076.287-.048 1.171-4.348 1.868-6.14a9.974 9.974 0 0 0 .335-5.18c-.201-.926-.35-2.168.779-2.436 5.375-1.27 9.188-2.513 13.297-2.814.396-1.997.64-3.311 1.032-5.308Z" fill="#FFB39F"/><path d="m119.639 146.913 4.6-.243a.404.404 0 0 0 .273-.128.4.4 0 0 0 .1-.283l-.037-.83c-.03-.35-.077-.73-.416-.78 0 0-1.1.16-1.563.282-.606.163-.903.258-1.672.478-1.142.315-1.615.506-1.696.86-.11.478.11.592.41.635Z" fill="#9F2B74"/><path d="M135.791 118.862s-.956 3.216-2.686 3.908c0 0 9.843 3.861 10.373 2.824 0 0-1.433-6.1-1.653-9.594l-6.034 2.862Z" fill="#9F3A79"/><path d="M141.801 122.609c3.12 2.03 3.933 8.533-5.857 7.167 0 0-3.823.477-6.45 2.427a11.386 11.386 0 0 1-4.223-7.917 18.218 18.218 0 0 1 7.806-2.17c5.872-.257 8.724.493 8.724.493Z" fill="#9F3A79"/><path d="M138.116 108.623c0 1.54 0 3.053-.067 4.592a49.796 49.796 0 0 1-.14 2.331c-.04.397-.08.798-.15 1.233-.04.24-.09.47-.16.71 0 .07-.033.13-.067.22l-.043.121-.023.063a2.058 2.058 0 0 1-.248.43 1.577 1.577 0 0 1-.145.161 1.92 1.92 0 0 1-.24.22 4.17 4.17 0 0 1-.7.45c-.21.104-.407.195-.598.276-.387.168-.76.311-1.132.445-.746.263-1.477.478-2.212.716-1.458.445-2.939.837-4.368 1.228l-.693-2.193c1.432-.477 2.865-.955 4.237-1.486a48.413 48.413 0 0 0 2.034-.806c.325-.143.65-.292.956-.44.143-.076.286-.153.406-.23a1.33 1.33 0 0 0 .24-.165l-.035.025c-.033.024-.038.038-.052.062a.737.737 0 0 0-.09.143.655.655 0 0 0-.049.1v-.051c0-.086.034-.244.053-.392.028-.315.048-.664.057-1.018v-2.178a105.86 105.86 0 0 0-.205-4.43l3.42-.143Zm-12.561 12.758a.93.93 0 0 0-.22.066c-.09.032-.176.072-.258.12a3.343 3.343 0 0 0-.502.33c-.33.258-.632.55-.903.869a.233.233 0 0 1-.372-.277c.245-.385.53-.744.85-1.07a4.66 4.66 0 0 1 .535-.48 2.72 2.72 0 0 1 .702-.38h.053a.43.43 0 0 1 .17-.03.428.428 0 0 1 .305.145.418.418 0 0 1-.24.678.346.346 0 0 1-.12.02Z" fill="#DE856C"/><path d="M125.947 120.854a2.487 2.487 0 0 0-.63.105c-.219.067-.43.155-.63.263a3.58 3.58 0 0 0-1.062.912.232.232 0 0 1-.41-.104.238.238 0 0 1 .028-.163 4.002 4.002 0 0 1 1.825-1.59c.268-.12.551-.2.841-.24a.408.408 0 0 1 .46.35.406.406 0 0 1-.35.457h-.072v.01Zm.433.922a.706.706 0 0 1-.172.067h-.09l-.173.048c-.115.033-.225.07-.334.114a4.943 4.943 0 0 0-.644.297 7 7 0 0 0-1.21.817.234.234 0 0 1-.255.028.24.24 0 0 1-.07-.057.234.234 0 0 1 0-.311c.361-.38.762-.723 1.194-1.022a6.32 6.32 0 0 1 1.051-.588l.19-.087.092-.037a.41.41 0 0 1 .55.146.406.406 0 0 1-.134.552l.015.023Z" fill="#DE856C"/><path d="M126.756 122.025c-.51.08-.996.26-1.434.53a9.49 9.49 0 0 0-1.333.956.218.218 0 0 1-.17.051.232.232 0 0 1-.155-.084.234.234 0 0 1 0-.31c.4-.42.835-.802 1.3-1.147a4.732 4.732 0 0 1 1.644-.794.408.408 0 0 1 .477.301.4.4 0 0 1-.305.478l-.024.02Z" fill="#DE856C"/><path d="M128.189 121.428c.607-.549.196-1.94.196-1.94a8.27 8.27 0 0 0-3.823.999l.35.803c.13.362.363.68.668.917.46.296 2.031-.263 2.609-.779Z" fill="#DE856C"/><path d="M125.978 122.454a9.942 9.942 0 0 0 1.004-.65c.153-.112.3-.233.44-.363a.944.944 0 0 0 .252-.325.426.426 0 0 1 .846.043.375.375 0 0 1-.048.167l-.043.086a1.63 1.63 0 0 1-.544.593 5.12 5.12 0 0 1-.56.35c-.37.198-.751.377-1.141.534a.242.242 0 0 1-.185-.013.249.249 0 0 1-.131-.13.243.243 0 0 1-.003-.17.24.24 0 0 1 .108-.127l.005-.005Z" fill="#DE856C"/><path d="M131.984 98.924s.884 7.009 2.45 7.797c3.346 1.673 7.98.51 9.161-2.523.392-1.012-2.461-2.948-2.867-5.016-.45-2.323-8.744-.258-8.744-.258Z" fill="#6278BF"/><path d="m136.637 106.4 4.357.239a1.359 1.359 0 0 1 .956.47c1.256 1.431 1.108 2.81.85 4.403-.272 1.672-1.056 3.034-.955 4.81a10.644 10.644 0 0 0 1.084 3.823s-1.161.654-4.114.478c-2.952-.177-4.3-.956-4.3-.956l-.148-9.88c.237-.99.612-1.94 1.113-2.824a1.334 1.334 0 0 1 1.157-.573Z" fill="#7460C9"/><path d="M138.381 113.735a1.758 1.758 0 0 1-1.572-.956 1.618 1.618 0 0 0 1.572 1.352 1.708 1.708 0 0 0 1.619-1.237 1.908 1.908 0 0 1-1.619.84Z" fill="#5C44A8"/><path d="m134.623 109.109-1.18 2.16a.628.628 0 0 0 .028.659l1.28 2.002 1.7-1.371-1.83-3.461Z" fill="#7460C9"/><path d="m139.605 106.768-1.013-3.106-2.752.898 1.018 3.1 2.747-.892Z" fill="#DE856C"/><path d="M139.609 106.768c.086.258-.477.674-1.218.922-.74.249-1.433.235-1.529-.023-.096-.258.478-.674 1.218-.923.74-.248 1.443-.238 1.529.024Z" fill="#DE856C"/><path d="M133.97 104.834c.712 1.271 2.055 1.644 4.367.177a3.023 3.023 0 0 0 1.52-2.05l-.598-5.5a1.226 1.226 0 0 0-.597-.8 1.241 1.241 0 0 0-.994-.098l-5.537 1.806a1.237 1.237 0 0 0-.76 1.65l2.599 4.815Z" fill="#FFAC91"/><path d="M137.992 95.326s3.268.445 3.082 5.175c-.038.96-1.21 2.31-1.21 2.31l-1.872-7.475Z" fill="#6278BF"/><path d="M132.129 98.369s3.65 2.221 7.133 0c0 0 1.945-.406.383-2.504-1.563-2.097-5.476-1.983-6.451.163a232.53 232.53 0 0 1-1.065 2.34Z" fill="#6278BF"/><path d="M130.611 99.105c.047-1.764 1.084-3.15 3.497-4.138 0 0 2.39 5.733-1.514 6.259-1.195.162-2.022-.913-1.983-2.121Z" fill="#6278BF"/><path d="M139.841 99.511a1.145 1.145 0 0 0-1.348-.86c-.506.144.354 2.542.956 2.141a1.127 1.127 0 0 0 .392-1.28Z" fill="#FFAC91"/><path d="m137.031 98.842 1.21-.631.558 1.252c.363.955.186.955.172.955-.664.249-1.74-1.065-1.94-1.576Z" fill="#6278BF"/><path d="m114.176 115.12.74-.578 1.271-.057 10.779-.464 3.206 9.623-12.05.521-3.029-9.083-.917.038Z" fill="#8147B5"/><path d="m117.377 124.749 12.055-.521-3.206-9.623-12.05.516 3.2 9.628Z" fill="#A06DCE"/><path d="M120.723 117.697s.477 0 .602.664" stroke="#C7F5EC" stroke-linecap="round" stroke-linejoin="round" stroke-width=".191"/><path d="M120.72 118.877a.838.838 0 0 0 .836.67.583.583 0 0 0 .567-.465.594.594 0 0 0-.003-.263.846.846 0 0 0-.832-.67.596.596 0 0 0-.572.465.599.599 0 0 0 .004.263Z" fill="#C7F5EC"/><path d="M121.005 120.123a.729.729 0 0 0-.564-.563 1.044 1.044 0 0 1 .98-.712 1.502 1.502 0 0 1 1.49 1.199 1.065 1.065 0 0 1-.195.895 1.058 1.058 0 0 1-.822.405 1.529 1.529 0 0 1-.693-.163 1.516 1.516 0 0 1-.54-.463.483.483 0 0 0 .354-.598Z" fill="#C7F5EC"/><path d="m129.04 124.253 7.671-.331-.05-1.356-7.67.331.058 1.356Z" fill="#8147B5"/><path d="m143.15 109.129-2.212 9.522v.096a1.227 1.227 0 0 1-.955.927l-4.879 1.003-2.437.512c-.807.17-1.643.34-2.39.52h-.032a.904.904 0 0 1-.478-1.74 97.678 97.678 0 0 1 2.423-.74l2.39-.71 4.777-1.4-.956 1.021 1.448-9.67a1.692 1.692 0 0 1 3.333.505 1.064 1.064 0 0 1-.042.143Z" fill="#FFAC91"/><path d="M128.165 118.689c.163.04.323.09.478.153.167.065.328.146.478.244.336.217.605.526.774.889l.048.11a.647.647 0 0 1-.565.913.651.651 0 0 1-.46-.174.642.642 0 0 1-.146-.204.603.603 0 0 1-.057-.316 1.008 1.008 0 0 0-.172-.602 1.794 1.794 0 0 0-.244-.305 2.55 2.55 0 0 0-.3-.268h-.03a.224.224 0 0 1-.066-.068.245.245 0 0 1-.03-.087.26.26 0 0 1 .004-.092.255.255 0 0 1 .04-.083.264.264 0 0 1 .103-.09.26.26 0 0 1 .135-.02Z" fill="#FFAC91"/><path d="M129.806 119.856a1.078 1.078 0 0 1 .684.58c.114.242.248.92-.034 1.097-.762.44-1.662.57-2.518.368-.545-.076-.736-.114-.654-.626.044-.305.11-.607.2-.903a.779.779 0 0 1 .62-.506 4.08 4.08 0 0 1 1.702-.01Z" fill="#FFAC91"/><path d="M128.405 120.61c-.47.024-.94.024-1.41 0a16.306 16.306 0 0 1-1.385-.143.262.262 0 0 1-.174-.102.263.263 0 0 1-.051-.194.273.273 0 0 1 .277-.22c.445.029.894.03 1.343 0 .441-.01.882-.05 1.32-.11a.394.394 0 0 1 .393.19.396.396 0 0 1-.284.59l-.029-.001Z" fill="#FFAC91"/><path d="M127.997 121.171a7.874 7.874 0 0 1-.813 0c-.263 0-.53-.03-.793-.062a7.16 7.16 0 0 1-1.54-.36.262.262 0 0 1-.131-.13.26.26 0 0 1 .1-.34.268.268 0 0 1 .187-.04c.47.118.95.186 1.434.201h.73c.24-.012.478-.039.713-.076a.404.404 0 0 1 .454.32.395.395 0 0 1-.325.455l-.005.024Z" fill="#FFAC91"/><path d="M127.613 121.789a5.674 5.674 0 0 1-.736-.081 11.146 11.146 0 0 1-2.055-.564.26.26 0 0 1-.112-.307.256.256 0 0 1 .28-.17c.432.117.871.208 1.314.272.219.02.439.05.659.06.213.01.427.01.64 0a.392.392 0 1 1 .043.78h-.033Z" fill="#FFAC91"/><path d="M128.568 121.695a5.794 5.794 0 0 1-.831.096 7.044 7.044 0 0 1-.822 0 4.458 4.458 0 0 1-1.606-.416.264.264 0 0 1-.12-.35.271.271 0 0 1 .14-.126.276.276 0 0 1 .19-.002c.45.17.94.249 1.43.234a5.967 5.967 0 0 0 1.43-.191.397.397 0 0 1 .475.272.403.403 0 0 1-.272.478l-.024.005Z" fill="#FFAC91"/><path d="M133.77 146.359a1.043 1.043 0 0 0 .652.967 1.05 1.05 0 1 0-.652-.967Z" fill="#666488"/><path d="M134.793 144.076v2.279" stroke="#666488" stroke-linecap="round" stroke-linejoin="round" stroke-width="1.123"/><path d="M145.528 147.405a1.052 1.052 0 1 0-.001-2.103 1.052 1.052 0 0 0 .001 2.103Z" fill="#666488"/><path d="M145.5 144.076v2.279" stroke="#666488" stroke-linecap="round" stroke-linejoin="round" stroke-width="1.123"/><path d="m140.997 131.141-.325 12.422a.475.475 0 0 1-.478.478.477.477 0 0 1-.478-.478l-.33-12.422a.799.799 0 0 1 1.592-.043l.02.043Z" fill="#9692C6"/><path d="M134.816 144.076h10.708" stroke="#9692C6" stroke-linecap="round" stroke-linejoin="round" stroke-width="1.123"/><path d="M139.145 146.359a1.051 1.051 0 0 0 .65.975 1.054 1.054 0 0 0 1.152-.23 1.054 1.054 0 0 0-.747-1.801 1.054 1.054 0 0 0-1.055 1.056Z" fill="#9692C6"/><path d="M140.199 144.076v2.174" stroke="#9692C6" stroke-linecap="round" stroke-linejoin="round" stroke-width="1.123"/><path d="m135.938 133.058 13.44-.559v-2.714h-13.44v3.273Z" fill="#CE6A77"/><path d="M141.326 131.848h5.112a2.394 2.394 0 0 0 2.394-2.394v-5.643a2.394 2.394 0 0 0-2.394-2.394h-5.112a2.394 2.394 0 0 0-2.394 2.394v5.643a2.394 2.394 0 0 0 2.394 2.394Z" stroke="#CE6A77" stroke-miterlimit="10" stroke-width="1.123"/><g opacity=".64"><path d="m121.899 111.849-3.665-2.953 2.571-1.52 1.094 4.473Z" fill="#DB698B"/><path d="M116.514 109.503a6.33 6.33 0 1 0 0-12.661 6.33 6.33 0 0 0 0 12.661Z" fill="#DB698B"/><path d="M119.968 102.121a1.725 1.725 0 0 0-3.45 0 1.727 1.727 0 0 0-1.727-1.638 1.73 1.73 0 0 0-1.727 1.638s-.158 2.06 3.464 4.449c3.597-2.389 3.44-4.449 3.44-4.449Z" fill="#fff"/></g><path d="M102.238 132.766c6.62 0 11.988-1.153 11.988-2.575 0-1.423-5.367-2.576-11.988-2.576-6.62 0-11.988 1.153-11.988 2.576 0 1.422 5.367 2.575 11.988 2.575Z" fill="#D2DCE0"/><path d="M104.626 100.472c.373 2.867-2.25 10.99-3.048 14.2a29.423 29.423 0 0 1 1.195 8.089s-.579 4.381-.579 5.132l-1.57-.053c-.064-.745-2.137-10.01-2.897-13.536-.569-2.637.43-8.682 1.563-14.277 2.599-.473 5.078-1.581 5.336.445Z" fill="#E3A5A2"/><path d="m100.604 127.84-1.725.564c-.927.21-1.634.42-2.145.587-.33.11-.54.39-.368.65a.396.396 0 0 0 .277.177h5.203a.363.363 0 0 0 .392-.324v-1.633l-1.634-.01Z" fill="#8C3878"/><path d="M107.658 101.227c.396 1.18.559 3.956.54 6.144-.024 2.805-1.854 6.212-1.845 9.671 1.72 2.102 1.41 4.482 1.4 6.402v5.916l-1.58.229c-.073-.75-2.39-8.2-3.54-12.22-1.01-3.57-2.238-11.92-1.258-17.07 2.647.34 3.655.53 6.283.92Z" fill="#FFB9B6"/><path d="M107.896 97.547s2.456 4.73.846 11.357c-1.677.669-9.26.449-11.047-1.567 0 0 0-5.442 1.706-9.112l8.495-.678Z" fill="#8577CE"/><path d="m106.11 129.197-1.634.587c-.922.22-1.624.44-2.135.617-.325.12-.536.4-.359.65a.386.386 0 0 0 .282.17l5.199-.08a.364.364 0 0 0 .391-.33v-1.634l-1.744.03Z" fill="#8C3878"/><path d="m101.714 86.578-4.52 4.873-.129.144a1.22 1.22 0 0 1-.893.387c-.387 0-.678-.024-1.008-.053a62.47 62.47 0 0 1-.956-.09 47.232 47.232 0 0 1-1.863-.259 57.99 57.99 0 0 1-3.655-.716.969.969 0 1 1 .325-1.912c1.194.134 2.385.23 3.573.287a44.06 44.06 0 0 0 1.768.043h.875c.277 0 .592-.024.817-.048l-1.023.535 3.584-5.595a1.98 1.98 0 1 1 3.333 2.127c-.07.1-.15.193-.24.277Z" fill="#E3A5A2"/><path d="M100.894 81.044c-1.132.344-1.973 1.73-2.346 2.39l-2.107 3.822c.67.425 1.329.87 1.993 1.309l1.185.803 3.287-5.06-.884-3.292-1.128.028Z" fill="#CF8655"/><path d="M87.104 90.228a.917.917 0 0 0-.206 0c-.09 0-.181 0-.277.033a4.437 4.437 0 0 0-.569.163 6.03 6.03 0 0 0-1.108.558.282.282 0 0 1-.43-.277.277.277 0 0 1 .096-.172 6.603 6.603 0 0 1 1.118-.807 4.25 4.25 0 0 1 .65-.306c.118-.044.24-.08.362-.11.145-.042.294-.063.445-.062h.33a.578.578 0 1 1 0 1.156.593.593 0 0 1-.411-.176Z" fill="#E3A5A2"/><path d="M87.62 89.845a2.32 2.32 0 0 0-.617-.081 2.837 2.837 0 0 0-.664.057 3.446 3.446 0 0 0-1.262.55.282.282 0 0 1-.438-.266.278.278 0 0 1 .09-.174 4.033 4.033 0 0 1 2.226-1.051c.298-.043.6-.043.898 0a.483.483 0 1 1-.148.955h-.071l-.015.01Z" fill="#E3A5A2"/><path d="M87.812 90.857a1.02 1.02 0 0 1-.2 0h-.622c-.235.015-.47.044-.702.086-.475.094-.94.236-1.386.426a.282.282 0 0 1-.368-.153.277.277 0 0 1 .115-.349c.454-.27.934-.494 1.433-.67.257-.084.52-.154.784-.21a5.5 5.5 0 0 1 .406-.066l.2-.02h.101a.477.477 0 0 1 .597.36.478.478 0 0 1-.358.606Z" fill="#E3A5A2"/><path d="M88.075 91.208a3.824 3.824 0 0 0-1.5.076 9.81 9.81 0 0 0-1.548.516.27.27 0 0 1-.303-.057.273.273 0 0 1-.06-.09.277.277 0 0 1 .12-.354 9.754 9.754 0 0 1 1.576-.75 4.645 4.645 0 0 1 1.825-.32.493.493 0 1 1-.047.973l-.063-.004Z" fill="#E3A5A2"/><path d="M89.625 90.948c.74-.348.736-1.8.736-1.8a8.233 8.233 0 0 0-3.927-.12l.105.864c.022.388.155.76.382 1.075.34.407 2.002.311 2.704-.019Z" fill="#E3A5A2"/><path d="M87.207 91.28c.385-.097.765-.213 1.138-.35.176-.067.348-.145.516-.234a.797.797 0 0 0 .296-.22.708.708 0 1 1 1.156.206l-.382.397a1.68 1.68 0 0 1-.727.43 5.85 5.85 0 0 1-.644.162c-.418.08-.839.14-1.262.177a.291.291 0 0 1-.096-.574l.005-.005Z" fill="#E3A5A2"/><path d="M108.195 76.945c-1.644-1.28.23-2.466.23-2.466l-3.78-1.534s-3.082 3.254-4.272 3.77c-1.19.516-3.201 2.623-.205 4.11a3.437 3.437 0 0 0 3.134.147c.58.155 1.17.262 1.768.32.28.01.56-.008.836-.052.31.104.63.178.956.22 2.723.363 2.976-3.245 1.333-4.515Z" fill="#5E7CFF"/><path d="M106.876 83.515c-.501-2.155-1.223-2.962-3.25-2.967h-2.502a1.225 1.225 0 0 0-.225 0 2.026 2.026 0 0 0-1.749 1.973 1.42 1.42 0 0 1 0 .244 17.64 17.64 0 0 1-1.065 3.259c-.234.587-.616 2.155.621 3.254a1.317 1.317 0 0 1 .478.955c.062 2.714.64 4.778.2 7.129a1.271 1.271 0 0 0 1.013 1.472c2.915.578 4.18.568 6.718.114.684-.12 1.305-.798 1.042-1.433-2.25-5.418-.932-12.49-1.28-14Z" fill="#F29E64"/><path d="M104.34 80.93s-1.935 1.801-2.39 1.514c-.262-.162-.362-1.533-.362-1.533a6.492 6.492 0 0 0-.096-3.173c.33-.726 2.313-.874 2.867.1a11.115 11.115 0 0 0-.02 3.092Z" fill="#E3A5A2"/><path d="M107.033 76.634s.277.956-1.572 1.61l1.352-2.613.22 1.003Zm-7.126-4.505s-1.606 2.867-.096 4.692l.57-.11-.464-4.582Z" fill="#5E7CFF"/><path d="M99.058 75.282c.148.593.535 1.008.865.927.329-.081.477-.626.334-1.223-.143-.597-.53-1.008-.86-.927-.33.081-.483.626-.34 1.223Z" fill="#E3A5A2"/><path d="M100.283 72.964s.143 2.652-.43 2.666c-.846.024-1.065-1.978-.66-3.024l1.09.358Z" fill="#5E7CFF"/><path d="M106.945 71.723a4.176 4.176 0 0 0-3.263-1.878h-.273c-1.342-.053-1.85-.153-2.728.846-1.128 1.285-.827 3.894-.86 4.72-.096 2.341.072 4.033 2.25 4.114 2.279.081 4.65-1.38 4.883-3.822.082-.822.46-3.297-.01-3.98Z" fill="#FFB9B6"/><path d="M107.229 71.813s1.912.864 1.635 3.377c-.115 1.09-.99 1.912-2.57 1.697l.935-5.075Z" fill="#5E7CFF"/><path d="M101.891 68.689c.42-.124.856-.197 1.294-.215 1.28-.082 2.69-.048 3.756.72 2.088 1.52 2.432 4.555.62 6.757-.22.13-2.794-.047-4.17-.817-1.171-.66-2.06-2.389-1.701-3.316-1.156.196-1.434.282-.812-.955.477-.918 0 0 .043-1.123a1.2 1.2 0 0 1 .97-1.051Z" fill="#5E7CFF"/><path d="M101.391 68.95s2.097-2.46 5.255-.506c1.271.783 2.566 2.714 1.768 4.185l-7.023-3.679Zm.85 1.653s-.09 2.695-2.48 3.04c0 0-2.356-1.3-1.161-3.58.564-1.065 1.433-1.318 2.79-1.113l.85 1.653Z" fill="#5E7CFF"/><path d="M107.563 75.952c-.23.683-.722 1.132-1.104 1.008-.382-.124-.502-.788-.272-1.472.229-.683.721-1.132 1.103-1.003.383.13.502.784.273 1.467Z" fill="#FFB9B6"/><path d="M106.19 75.511s.803 1.334-.028 1.434c0 0-1.912 0-1.64-1.935l1.668.5Z" fill="#5E7CFF"/><path d="m70.383 81.904.927-.664h14.534l3.36 11.754H74.668l-3.173-11.09h-1.113Z" fill="#614EB5"/><path d="M73.746 93.658H88.28l-3.357-11.754h-14.54l3.364 11.754Z" fill="#8577CE"/><path d="M78.782 85.307s-.478.062-.301.793" stroke="#C7E5F5" stroke-linecap="round" stroke-linejoin="round" stroke-width=".229"/><path d="M79.368 86.635a.593.593 0 0 1-.55.812 1.036 1.036 0 0 1-.955-.78.593.593 0 0 1 .53-.802 1.022 1.022 0 0 1 .975.77Z" fill="#C7E5F5"/><path d="M79.695 88.083a.521.521 0 0 1 .33-.679 1.82 1.82 0 0 0-1.41-.75c-.73 0-1.146.65-.955 1.434a1.96 1.96 0 0 0 1.696 1.433.956.956 0 0 0 1.027-.755 1.018 1.018 0 0 1-.688-.683Z" fill="#C7E5F5"/><path d="M87.811 93.658h9.255v-1.634h-9.255v1.634Z" fill="#614EB5"/><path d="m105.724 86.262-4.338 8.07-.08.148a1.341 1.341 0 0 1-1.119.703l-5.47.229-2.734.129c-.903.043-1.844.086-2.695.153h-.038a.994.994 0 0 1-.225-1.969c.956-.153 1.845-.263 2.762-.382l2.723-.349 5.447-.674-1.199.87 3.03-8.643a2.16 2.16 0 0 1 2.752-1.319 2.153 2.153 0 0 1 1.438 1.919c.015.283-.026.566-.12.833a2.47 2.47 0 0 1-.134.282Z" fill="#FFB9B6"/><path d="M87.552 92.043c.175.07.344.153.507.248.16.102.32.22.47.35.325.302.56.684.676 1.108l.038.132a.71.71 0 0 1-.774.886.706.706 0 0 1-.59-.518.664.664 0 0 1 0-.348 1.133 1.133 0 0 0-.087-.688 2.397 2.397 0 0 0-.206-.373 2.479 2.479 0 0 0-.282-.337v-.023a.263.263 0 0 1 0-.368.271.271 0 0 1 .24-.058Z" fill="#FFB9B6"/><path d="M89.13 93.597a1.184 1.184 0 0 1 .636.745c.08.287.11 1.046-.224 1.185a3.78 3.78 0 0 1-2.8-.038c-.574-.182-.78-.254-.602-.798.103-.327.23-.646.377-.956a.85.85 0 0 1 .765-.435 4.53 4.53 0 0 1 1.849.297Z" fill="#FFB9B6"/><path d="M87.479 94.146a15.488 15.488 0 0 1-1.529-.263 20.122 20.122 0 0 1-1.481-.401.286.286 0 0 1-.19-.358.296.296 0 0 1 .34-.196c.471.105.95.186 1.43.248s.98.1 1.43.11a.435.435 0 1 1 0 .865l-.01-.005Z" fill="#FFB9B6"/><path d="M86.947 94.708a9.835 9.835 0 0 1-.883-.124 8.111 8.111 0 0 1-.846-.21 7.79 7.79 0 0 1-1.62-.66.287.287 0 0 1 .045-.522.291.291 0 0 1 .208.006 7.133 7.133 0 0 0 1.534.478c.263.053.526.096.793.124.26.028.522.043.784.043a.435.435 0 1 1 0 .865h-.015Z" fill="#FFB9B6"/><path d="M86.428 95.312a6.652 6.652 0 0 1-.784-.215c-.253-.086-.478-.176-.736-.277-.48-.201-.946-.434-1.395-.697a.287.287 0 0 1 .263-.507 11.163 11.163 0 0 0 2.083.717c.227.055.456.097.688.124a.44.44 0 0 1 .332.64.428.428 0 0 1-.427.22l-.024-.005Z" fill="#FFB9B6"/><path d="M87.457 95.373a6.325 6.325 0 0 1-.912-.043 6.912 6.912 0 0 1-.89-.153 4.878 4.878 0 0 1-1.671-.731.287.287 0 0 1 .31-.478c.46.26.967.43 1.49.502.267.043.535.067.804.071.265.01.53 0 .793-.028a.435.435 0 0 1 .096.86h-.02Z" fill="#FFB9B6"/><path d="m104.228 90.28-4.334-.85 1.62-5.356s.55-2.57 2.131-2.494c1.133.052 4.922 1.75.583 8.7Z" fill="#F29E64"/><path d="M101.387 84.504a27.495 27.495 0 0 1-.626 2.499c-.124.41-.253.817-.396 1.223-.144.406-.292.807-.478 1.204.071-.425.177-.846.282-1.261.105-.427.224-.838.348-1.248a23.91 23.91 0 0 1 .87-2.427Zm2.843 5.777c.144-.287.292-.57.411-.86.12-.292.263-.579.373-.875.232-.583.426-1.18.583-1.787.154-.607.252-1.228.291-1.854a8.993 8.993 0 0 0-.11-1.91 5.62 5.62 0 0 1 .368 1.91 7.457 7.457 0 0 1-.215 1.912 9.458 9.458 0 0 1-.668 1.815 7.888 7.888 0 0 1-1.033 1.649Z" fill="#B85D25"/><g opacity=".64"><path d="m102.114 67.298 2.508-3.98-2.919-.607.411 4.587Z" fill="#DB698B"/><path d="M104.378 63.632a6.331 6.331 0 1 0 0-12.662 6.331 6.331 0 0 0 0 12.662Z" fill="#DB698B"/><path d="M107.831 56.246a3.595 3.595 0 0 1-3.452 4.611 3.597 3.597 0 0 1-3.452-4.61 3.635 3.635 0 0 1 6.904 0Z" fill="#fff"/><path d="M106.16 58.42a1.646 1.646 0 0 1-.783.63 2.746 2.746 0 0 1-1.993.01 1.626 1.626 0 0 1-.793-.635.086.086 0 0 1 .03-.11.09.09 0 0 1 .09 0c.245.164.52.28.807.344a3.826 3.826 0 0 0 1.735.01 2.239 2.239 0 0 0 .829-.36.067.067 0 0 1 .074.014c.012.013.019.03.02.047a.072.072 0 0 1-.016.05Zm.123-1.744a.316.316 0 0 1-.242.236.32.32 0 1 1-.073-.633.36.36 0 0 1 .315.397Zm-3.176 0a.328.328 0 0 1-.425.235.327.327 0 0 1-.064-.582.324.324 0 0 1 .173-.05.357.357 0 0 1 .316.397Z" fill="#DB698B"/></g><g opacity=".64"><path d="M73.413 140.763c3.496 0 6.33-2.896 6.33-6.469 0-3.573-2.834-6.47-6.33-6.47-3.497 0-6.331 2.897-6.331 6.47s2.834 6.469 6.33 6.469Z" fill="#DB698B"/><path d="M71.355 132.674h-1.84a.468.468 0 0 0-.468.468v3.56c0 .258.21.468.468.468h1.84c.258 0 .468-.21.468-.468v-3.56a.468.468 0 0 0-.468-.468Zm5.925-.13h-1.97a.376.376 0 0 1-.272-.117.383.383 0 0 1-.11-.275v-.39l-.062-.737a.604.604 0 0 0-.597-.564.612.612 0 0 0-.426.18.602.602 0 0 0-.171.432v.702a.629.629 0 0 1-.096.334l-.167.282c-.086.14-.196.262-.325.363l-.521.387a.523.523 0 0 0-.2.411v2.16a.505.505 0 0 0 .2.411l.387.296a.517.517 0 0 0 .3.1h3.279c.1.001.2-.03.282-.09a.61.61 0 0 0 .29-.68.53.53 0 0 1 .129-.477.598.598 0 0 0 .126-.516.589.589 0 0 1 .105-.444.667.667 0 0 0 .124-.56.513.513 0 0 1 .097-.41.511.511 0 0 0-.392-.798Z" fill="#fff"/></g><g opacity=".64"><path d="M85.047 19.876c2.412 0 4.367-1.998 4.367-4.462 0-2.465-1.955-4.463-4.367-4.463s-4.367 1.998-4.367 4.463c0 2.464 1.955 4.462 4.367 4.462Z" fill="#DB698B"/><path d="M86.468 17.402h1.27a.32.32 0 0 0 .32-.32v-2.46a.32.32 0 0 0-.32-.32h-1.27a.32.32 0 0 0-.32.32v2.46c0 .177.143.32.32.32Zm-4.083-3.192h1.357a.268.268 0 0 0 .268-.268v-.272l.038-.507a.42.42 0 0 1 .41-.392.42.42 0 0 1 .416.426v.478c0 .08.024.16.067.229l.12.196a.856.856 0 0 0 .23.248l.359.268a.358.358 0 0 1 .14.282v1.49a.358.358 0 0 1-.14.282l-.267.2a.335.335 0 0 1-.205.073h-2.26a.354.354 0 0 1-.196-.063.416.416 0 0 1-.201-.477.374.374 0 0 0-.082-.33.42.42 0 0 1-.1-.344.425.425 0 0 0-.067-.31.45.45 0 0 1-.086-.39.387.387 0 0 0-.067-.289.349.349 0 0 1 .277-.54Z" fill="#fff"/></g><g opacity=".64"><path d="M179.945 54.058c2.412 0 4.367-1.998 4.367-4.463 0-2.464-1.955-4.462-4.367-4.462s-4.367 1.998-4.367 4.462c0 2.465 1.955 4.463 4.367 4.463Z" fill="#DB698B"/><path d="M178.525 48.477h-1.271a.32.32 0 0 0-.32.32v2.46c0 .177.143.32.32.32h1.271a.32.32 0 0 0 .32-.32v-2.46a.32.32 0 0 0-.32-.32Zm4.09-.086h-1.362a.273.273 0 0 1-.262-.272v-.268l-.028-.51a.418.418 0 0 0-.576-.356.411.411 0 0 0-.25.389v.477a.434.434 0 0 1-.069.23l-.115.2a.82.82 0 0 1-.224.254l-.36.268a.358.358 0 0 0-.137.282v1.486a.344.344 0 0 0 .138.282l.268.206c.058.046.13.072.205.07h2.26a.354.354 0 0 0 .196-.062.419.419 0 0 0 .196-.478.36.36 0 0 1 .087-.33.417.417 0 0 0 .1-.344.392.392 0 0 1 .068-.306.45.45 0 0 0 .086-.387.399.399 0 0 1 .005-.15.402.402 0 0 1 .062-.137.349.349 0 0 0-.277-.535Z" fill="#fff"/></g></g><defs><clipPath id="a"><path d="M.602.97h206.051v150H.602z" fill="#fff"/></clipPath></defs></svg>